<svg width="40" height="40" viewBox="0 0 40 40" fill="none" xmlns="http://www.w3.org/2000/svg">
<path d="M26.9308 13.3263C25.6561 12.7124 24.2892 12.2601 22.8599 12.0011C22.8339 11.9961 22.8079 12.0086 22.7945 12.0336C22.6187 12.3617 22.4239 12.7899 22.2876 13.1264C20.7503 12.8848 19.221 12.8848 17.7153 13.1264C17.5789 12.7824 17.3771 12.3617 17.2005 12.0336C17.1871 12.0094 17.1611 11.9969 17.135 12.0011C15.7066 12.2593 14.3396 12.7116 13.0641 13.3263C13.0531 13.3313 13.0436 13.3396 13.0373 13.3505C10.4445 17.4161 9.73421 21.3818 10.0827 25.2983C10.0842 25.3175 10.0945 25.3358 10.1087 25.3475C11.8193 26.666 13.4764 27.4665 15.1027 27.9971C15.1288 28.0054 15.1563 27.9954 15.1729 27.9729C15.5576 27.4215 15.9005 26.8401 16.1946 26.2287C16.2119 26.1929 16.1954 26.1504 16.1599 26.1363C15.6159 25.9197 15.098 25.6557 14.5998 25.3558C14.5604 25.3317 14.5572 25.2725 14.5935 25.2442C14.6983 25.1617 14.8032 25.0759 14.9033 24.9893C14.9214 24.9735 14.9466 24.9701 14.9679 24.9801C18.2411 26.5486 21.7846 26.5486 25.0191 24.9801C25.0404 24.9693 25.0657 24.9726 25.0846 24.9885C25.1847 25.0751 25.2895 25.1617 25.3952 25.2442C25.4314 25.2725 25.4291 25.3317 25.3897 25.3558C24.8914 25.6615 24.3735 25.9197 23.8288 26.1354C23.7933 26.1496 23.7775 26.1929 23.7949 26.2287C24.0952 26.8393 24.4381 27.4207 24.8157 27.9721C24.8315 27.9954 24.8599 28.0054 24.8859 27.9971C26.5201 27.4665 28.1772 26.666 29.8879 25.3475C29.9028 25.3358 29.9123 25.3183 29.9139 25.2992C30.3309 20.7712 29.2154 16.838 26.9568 13.3513C26.9513 13.3396 26.9419 13.3313 26.9308 13.3263ZM16.6834 22.9136C15.6979 22.9136 14.8859 21.964 14.8859 20.7979C14.8859 19.6317 15.6822 18.6822 16.6834 18.6822C17.6924 18.6822 18.4965 19.6401 18.4807 20.7979C18.4807 21.964 17.6845 22.9136 16.6834 22.9136ZM23.329 22.9136C22.3435 22.9136 21.5316 21.964 21.5316 20.7979C21.5316 19.6317 22.3278 18.6822 23.329 18.6822C24.338 18.6822 25.1421 19.6401 25.1264 20.7979C25.1264 21.964 24.338 22.9136 23.329 22.9136Z" fill="#181818"/>
</svg>
