<svg width="40" height="40" viewBox="0 0 40 40" fill="none" xmlns="http://www.w3.org/2000/svg">
<path d="M29.6 13.9C28.9 14.2 28.1 14.4 27.3 14.5C28.1 14 28.8 13.2 29.1 12.3C28.3 12.8 27.5 13.1 26.5 13.3C25.8 12.5 24.7 12 23.6 12C21.4 12 19.6 13.8 19.6 16C19.6 16.3 19.6 16.6 19.7 16.9C16.4 16.7 13.4 15.1 11.4 12.7C11.1 13.3 10.9 14 10.9 14.7C10.9 16.1 11.6 17.3 12.7 18C12 18 11.4 17.8 10.9 17.5C10.9 19.4 12.3 21.1 14.1 21.4C13.8 21.5 13.4 21.5 13 21.5C12.7 21.5 12.5 21.5 12.2 21.4C12.7 23 14.2 24.2 16 24.2C14.6 25.3 12.9 25.9 11 25.9C10.7 25.9 10.4 25.9 10 25.8C11.8 26.9 13.9 27.6 16.2 27.6C23.6 27.6 27.6 21.5 27.6 16.2V15.7C28.4 15.4 29.1 14.7 29.6 13.9Z" fill="#181818"/>
</svg>
