<svg width="40" height="40" viewBox="0 0 40 40" fill="none" xmlns="http://www.w3.org/2000/svg">
<path fill-rule="evenodd" clip-rule="evenodd" d="M27.5973 16.7H24.2095C22.633 16.7028 21.3558 17.948 21.353 19.4852C21.3509 21.0258 22.6294 22.2765 24.2095 22.2786H27.6001V22.5234C27.6001 25.2108 25.9709 26.7999 23.214 26.7999H15.9869C13.2293 26.7999 11.6001 25.2108 11.6001 22.5234V16.6702C11.6001 13.9828 13.2293 12.3999 15.9869 12.3999H23.2111C25.9681 12.3999 27.5973 13.9828 27.5973 16.6702V16.7ZM15.3917 16.6938H19.9037H19.9066H19.9123C20.2501 16.6924 20.5231 16.4241 20.5217 16.094C20.5203 15.7647 20.2444 15.4984 19.9066 15.4998H15.3917C15.0561 15.5012 14.7837 15.7668 14.7823 16.0947C14.7809 16.4241 15.054 16.6924 15.3917 16.6938Z" fill="#181818"/>
<path opacity="0.4" d="M22.83 19.8373C22.9973 20.5982 23.6644 21.1336 24.4261 21.1197H27.0261C27.343 21.1197 27.6 20.8572 27.6 20.5328V18.5075C27.5994 18.1838 27.343 17.9206 27.0261 17.9199H24.3649C23.4985 17.9227 22.7987 18.6419 22.8001 19.5281C22.8001 19.6319 22.8103 19.7356 22.83 19.8373" fill="#181818"/>
<circle cx="24.4001" cy="19.5197" r="0.8" fill="#181818"/>
</svg>
